<svg width="161" height="30" viewBox="0 0 161 30" fill="none" xmlns="http://www.w3.org/2000/svg">
<path d="M110.62 17.5568C109.243 17.0012 108.119 16.4987 107.245 16.0542C105.545 15.1798 104.593 14.17 104.397 13.0298C104.27 12.281 104.466 11.6287 104.979 11.0683C105.492 10.5127 106.175 10.2131 107.035 10.1697C108.427 10.0875 109.619 10.532 110.61 11.5031C111.187 12.0684 111.724 12.7737 112.237 13.6192C112.261 13.6627 112.32 13.6675 112.354 13.6337L114.698 11.1649L114.713 11.1069C114.122 10.5368 112.984 10.0875 111.299 9.74933C109.614 9.41597 108.031 9.33866 106.556 9.51742C105.56 9.64304 104.681 9.86528 103.919 10.1841C103.162 10.503 102.566 10.8895 102.126 11.3437C101.692 11.7978 101.359 12.2568 101.125 12.7303C100.891 13.2037 100.734 13.711 100.651 14.2521C100.246 16.8514 101.511 18.8323 104.446 20.1947C107.186 21.4315 109.033 22.3543 109.98 22.9582C110.928 23.5621 111.504 24.2675 111.699 25.0743C111.782 25.3497 111.836 25.6444 111.856 25.9488C111.875 26.2532 111.836 26.5866 111.739 26.9392C111.641 27.2919 111.48 27.6108 111.265 27.9007C111.05 28.1857 110.708 28.4225 110.244 28.6109C109.78 28.7993 109.223 28.9008 108.578 28.9153C107.006 28.9153 105.526 28.234 104.153 26.8716C103.401 26.1227 102.781 25.2918 102.287 24.3786C102.263 24.3352 102.204 24.3255 102.17 24.3641L99.5474 27.1277C99.5181 27.1567 99.5181 27.205 99.5474 27.234C100.129 27.7799 101.052 28.292 102.312 28.7703C103.626 29.2728 105.071 29.5917 106.644 29.7318C108.061 29.8429 109.355 29.7608 110.522 29.4902C111.69 29.2196 112.632 28.8186 113.345 28.2824C114.063 27.7461 114.625 27.1663 115.045 26.5431C115.46 25.915 115.724 25.2724 115.836 24.6057C116.383 21.5185 114.65 19.1704 110.63 17.5568" fill="currentColor"/>
<path d="M39.7192 29.7836C36.564 29.7836 33.9509 28.8077 31.8751 26.8607C29.7993 24.9088 28.7687 22.4593 28.7834 19.5074C28.798 17.5023 29.2767 15.7292 30.2193 14.1832C31.162 12.6372 32.4759 11.4487 34.1561 10.6225C35.8411 9.79152 37.7558 9.38086 39.9097 9.38086C43.1871 9.38086 45.8001 10.3133 47.7441 12.183C49.688 14.0479 50.6307 16.5312 50.5721 19.6378C50.5281 22.5318 49.5171 24.9474 47.5389 26.8848C45.5608 28.8173 42.9526 29.7884 39.7143 29.7884M40.2028 28.8463C41.3408 28.7497 42.3128 28.2521 43.1138 27.3535C43.9148 26.4548 44.496 25.3291 44.8575 23.9715C45.2189 22.6139 45.3948 21.0872 45.3948 19.3866C45.3654 17.6328 45.1359 16.0723 44.711 14.7098C44.2811 13.3474 43.6315 12.2603 42.7572 11.4535C41.883 10.6467 40.8573 10.2698 39.6753 10.3278C38.5226 10.3954 37.5262 10.8882 36.6861 11.7965C35.8509 12.7097 35.2306 13.8595 34.8399 15.2558C34.4442 16.6472 34.2537 18.1884 34.2684 19.8697C34.283 21.4834 34.5224 22.9763 34.9864 24.3484C35.4504 25.7205 36.1391 26.8317 37.0573 27.682C37.9756 28.5323 39.0208 28.9188 40.2028 28.8512" fill="currentColor"/>
<path d="M79.3597 26.3646L79.5307 26.9589L71.5693 29.6644L71.3593 29.5823C71.3593 29.0122 71.3739 28.2537 71.4032 27.3067C69.8989 28.6982 67.9696 29.4712 65.6154 29.6258C62.6995 29.7901 60.2524 28.9059 58.2792 26.9734C56.3011 25.036 55.3145 22.5092 55.3145 19.393C55.3145 16.6198 56.2376 14.3298 58.0936 12.5083C59.9447 10.6918 62.3038 9.67718 65.1758 9.46943C67.6814 9.30033 69.7719 9.60471 71.4472 10.3681C71.4032 7.1214 71.3642 5.21785 71.3202 4.64292C71.3055 4.33855 71.286 4.10181 71.2567 3.94238C71.2274 3.78294 71.1492 3.62834 71.0271 3.47373C70.9002 3.32396 70.7243 3.22251 70.4996 3.18385C70.1187 3.10172 69.5423 3.15487 68.7657 3.35295L68.5899 2.70555C69.8403 2.3432 71.3349 1.7876 73.1274 1.203C74.9199 0.618412 76.0531 0.140109 76.5171 0L76.6001 0.0386507C76.4878 4.24192 76.4291 9.22303 76.4291 14.7356C76.4291 17.4508 76.4731 20.6878 76.5561 24.4466C76.5708 25.1858 76.7124 25.7124 76.9762 26.0361C77.2448 26.3598 77.5818 26.5047 77.9921 26.4758C78.3975 26.4468 78.8566 26.4129 79.3646 26.3743M67.0318 27.471C68.8488 27.5387 70.3043 26.9541 71.4032 25.7172V24.5674C71.4032 23.9828 71.4081 22.6832 71.4228 20.6588C71.4374 18.6393 71.4423 17.1658 71.4423 16.2333C71.3983 14.8274 71.0711 13.6196 70.4508 12.6098C69.8305 11.6001 69.0539 10.9043 68.1161 10.513C67.1783 10.1217 66.1966 10.0589 65.1709 10.3246C63.6226 10.7159 62.4846 11.6967 61.7617 13.2669C61.0388 14.8419 60.78 16.9097 60.99 19.4703C61.1609 21.7942 61.8056 23.6881 62.9241 25.152C64.0426 26.6159 65.4102 27.3889 67.0318 27.471Z" fill="currentColor"/>
<path d="M135.399 26.6071L135.697 27.0032C135.262 27.5202 134.739 27.9888 134.134 28.414C133.528 28.8391 132.688 29.2015 131.609 29.5107C130.529 29.8151 129.386 29.9214 128.18 29.8247C123.872 29.4769 121.718 27.0129 121.718 22.4328V11.1323H118.045V10.4849C119.032 10.4172 119.969 10.2143 120.863 9.88096C121.757 9.5476 122.587 9.08379 123.354 8.48953C124.121 7.89528 124.771 7.1271 125.298 6.17049C125.826 5.21872 126.167 4.13649 126.324 2.92383H127.125L127.086 10.1902H132.156V11.1274H127.086L127.042 16.0796V19.9833C127.042 22.1139 127.135 23.5875 127.315 24.4136C127.711 26.0998 128.59 27.1289 129.953 27.5057C130.856 27.7569 131.804 27.8004 132.805 27.641C133.806 27.4815 134.671 27.1385 135.404 26.6071" fill="currentColor"/>
<path d="M21.8473 12.4031C20.3674 10.5575 18.2574 9.55259 15.5124 9.38349C14.6137 9.33035 13.7297 9.41731 12.8603 9.64439C11.9958 9.87146 11.2485 10.1807 10.6233 10.5623C9.9981 10.944 9.4706 11.3305 9.04078 11.7219C8.61097 12.1132 8.30326 12.4756 8.12254 12.8089C8.12254 7.32534 8.15184 3.08826 8.20557 0.112149L8.07858 0.00585938C7.5462 0.170125 0.53727 2.6486 0 2.79837L0.205139 3.34432C0.93778 3.17522 1.52878 3.10758 1.97813 3.13657C2.49586 3.16556 2.78892 3.53274 2.84264 4.24295C2.90126 4.92417 2.92568 8.42206 2.92568 14.727C2.92568 18.1814 3.08197 28.9408 3.09663 29.0519H3.57528V29.0615L7.03823 27.873C9.02124 29.2162 11.4683 29.8056 14.3939 29.6123C16.1279 29.5157 17.6957 28.9939 19.1024 28.047C20.509 27.1 21.6178 25.868 22.4286 24.351C23.2393 22.8339 23.6985 21.1623 23.8108 19.3409C23.9818 16.558 23.3273 14.2438 21.8473 12.3983M18.5358 20.283C18.4918 21.5633 18.2867 22.8001 17.9106 23.9886C17.5394 25.1771 16.9924 26.2014 16.2744 27.0614C15.5564 27.9165 14.7407 28.4238 13.8274 28.5736C12.2107 28.8393 10.8626 28.3948 9.78319 27.2498C8.70865 26.0999 8.1665 24.4621 8.1665 22.3315V14.0409C8.88448 13.0505 9.68062 12.3403 10.5549 11.9103C11.4243 11.4755 12.2595 11.2774 13.0459 11.3064C14.7749 11.345 16.1474 12.1567 17.1633 13.7269C18.1792 15.3019 18.6335 17.4857 18.5358 20.283Z" fill="currentColor"/>
<path d="M160.481 26.5963C160.056 26.6301 159.958 26.6398 159.577 26.664C159.167 26.6929 158.83 26.548 158.561 26.2243C158.293 25.9054 158.151 25.374 158.141 24.6348C158.131 24.2483 158.126 23.8666 158.117 23.4898C158.117 23.4898 158.048 11.967 158.043 11.3196C158.034 10.6722 158.024 10.2905 158.014 10.1794H157.531L154.273 11.2955C153.652 10.851 153.037 10.5514 153.037 10.5514C151.362 9.78808 149.271 9.4837 146.766 9.6528C143.894 9.86055 141.535 10.8751 139.683 12.6917C137.832 14.5083 136.904 16.8032 136.904 19.5764C136.904 22.6926 137.891 25.2242 139.869 27.1567C141.847 29.0893 144.294 29.9783 147.205 29.8092C149.555 29.6546 151.484 28.8815 152.993 27.4901C152.964 28.4371 152.949 29.1956 152.949 29.7657L153.159 29.8478L160.705 27.2727L160.486 26.5818L160.481 26.5963ZM153.008 20.8567C152.993 22.8762 152.988 24.1806 152.988 24.7652V25.9151C151.889 27.1567 150.434 27.7413 148.617 27.6689C146.995 27.5867 145.628 26.8137 144.509 25.3498C143.391 23.8908 142.746 21.9969 142.575 19.6682C142.365 17.1076 142.624 15.0397 143.347 13.4647C144.074 11.8897 145.208 10.9089 146.756 10.5224C147.786 10.2567 148.768 10.3195 149.701 10.7109C150.639 11.1022 151.415 11.7979 152.036 12.8077C152.656 13.8174 152.988 15.0253 153.027 16.4312C153.027 17.3636 153.017 18.842 153.008 20.8567Z" fill="currentColor"/>
<path d="M88.9608 5.90925C89.7911 5.90925 90.4896 5.61454 91.0611 5.03478C91.6325 4.45018 91.9158 3.74481 91.9158 2.92348C91.9158 2.19878 91.6325 1.5707 91.0611 1.03442C90.4896 0.498146 89.7911 0.232422 88.9608 0.232422C88.1305 0.232422 87.4565 0.498146 86.8997 1.03442C86.3429 1.5707 86.0645 2.19878 86.0645 2.92348C86.0645 3.74481 86.3429 4.45018 86.8997 5.03478C87.4565 5.61937 88.1403 5.90925 88.9608 5.90925Z" fill="currentColor"/>
<path d="M86.6434 29.6619L86.4285 29.5798C86.4285 29.0338 86.4383 28.6038 86.4627 27.739V27.2076V25.6181V24.4682C86.4627 24.1638 86.4627 23.6662 86.4676 22.9753V19.4243C86.4676 16.2936 86.4383 14.3852 86.3846 13.704C86.3699 13.5252 86.3601 13.4141 86.3504 13.3706C86.3455 13.332 86.326 13.2402 86.2966 13.1001C86.2673 12.96 86.2332 12.873 86.1892 12.8295C86.1452 12.7909 86.0817 12.7425 85.9987 12.6942C85.9157 12.6459 85.8082 12.6121 85.6812 12.6024C85.3149 12.5735 84.7532 12.6169 83.9913 12.7281L83.7812 11.9985C86.3992 11.1917 89.0514 10.2254 91.7426 9.29297L91.8696 9.3751C91.811 13.0228 91.8061 22.7241 91.8452 24.5214C91.8598 25.2606 92.0015 25.7872 92.2652 26.1109C92.5339 26.4346 92.8709 26.5795 93.2811 26.5505C93.6914 26.5215 94.1457 26.4877 94.6536 26.4491L94.7855 26.9612L86.6385 29.6764L86.6434 29.6619Z" fill="currentColor"/>
</svg>
