<svg width="66" height="83" viewBox="0 0 66 83" fill="none" xmlns="http://www.w3.org/2000/svg">
  <path
    fill="#000000"
    d="M60.4901 34.7129C56.3925 29.5452 50.5504 26.7313 42.9503 26.2579C40.462 26.1091 38.0142 26.3526 35.6071 26.9884C33.2134 27.6242 31.1443 28.49 29.4134 29.5587C27.6824 30.6274 26.2218 31.7097 25.0318 32.8054C23.8417 33.9012 22.9897 34.9158 22.4894 35.8492C22.4894 20.4949 22.5705 8.63087 22.7193 0.297616L22.3677 0C20.8936 0.459952 1.48757 7.39982 0 7.81919L0.567982 9.34785C2.59649 8.87437 4.23282 8.68498 5.47697 8.76615C6.91045 8.84732 7.72185 9.87545 7.87061 11.8641C8.03289 13.7715 8.1005 23.5658 8.1005 41.2198C8.1005 50.8924 8.53325 81.0193 8.57382 81.3304H9.89911V81.3574L19.4872 78.0296C24.9777 81.7903 31.7529 83.4408 39.8534 82.8996C44.6542 82.6291 48.9952 81.1681 52.8899 78.5166C56.7847 75.8651 59.8545 72.4154 62.0994 68.1676C64.3442 63.9198 65.6154 59.2392 65.9265 54.1391C66.3998 46.347 64.5877 39.867 60.4901 34.6993M51.3212 56.7771C51.1995 60.362 50.6315 63.8251 49.5902 67.153C48.5625 70.4809 47.0478 73.3489 45.0599 75.7569C43.072 78.1513 40.8136 79.5718 38.2847 79.9911C33.8085 80.7352 30.076 79.4906 27.0873 76.2844C24.1122 73.0648 22.6111 68.4788 22.6111 62.5129V39.2989C24.599 36.5256 26.8033 34.537 29.224 33.333C31.6312 32.1155 33.9437 31.5608 36.1209 31.642C40.9082 31.7502 44.7083 34.0229 47.5212 38.4195C50.334 42.8297 51.5917 48.9443 51.3212 56.7771Z"
  />
</svg>
